<mxfile host="Electron" agent="Mozilla/5.0 (Macintosh; Intel Mac OS X 10_15_7) AppleWebKit/537.36 (KHTML, like Gecko) draw.io/27.0.9 Chrome/134.0.6998.205 Electron/35.4.0 Safari/537.36" version="27.0.9">
  <diagram name="Page-1" id="c7558073-3199-34d8-9f00-42111426c3f3">
    <mxGraphModel dx="437" dy="338" grid="1" gridSize="10" guides="1" tooltips="1" connect="1" arrows="1" fold="1" page="1" pageScale="1" pageWidth="826" pageHeight="1169" background="none" math="1" shadow="0">
      <root>
        <mxCell id="0" />
        <mxCell id="1" parent="0" />
        <mxCell id="79KnxAv0YFB9ApgYJ-vH-246" value="" style="endArrow=none;html=1;rounded=0;exitX=0.231;exitY=-0.23;exitDx=0;exitDy=0;exitPerimeter=0;dashed=1;" parent="1" edge="1">
          <mxGeometry width="50" height="50" relative="1" as="geometry">
            <mxPoint x="558.0482499999998" y="206.84" as="sourcePoint" />
            <mxPoint x="558.0999999999999" y="165.8" as="targetPoint" />
          </mxGeometry>
        </mxCell>
        <mxCell id="t9Jcl4g-q7xanhM5zm8e-96" value="" style="whiteSpace=wrap;html=1;aspect=fixed;fillColor=light-dark(#DAC0A2,#272727);fontFamily=Merriweather;" parent="1" vertex="1">
          <mxGeometry x="167.53" y="174.75" width="20" height="20" as="geometry" />
        </mxCell>
        <mxCell id="t9Jcl4g-q7xanhM5zm8e-97" value="" style="whiteSpace=wrap;html=1;aspect=fixed;fillColor=#67B6AA;fontFamily=Merriweather;" parent="1" vertex="1">
          <mxGeometry x="187.53" y="174.75" width="20" height="20" as="geometry" />
        </mxCell>
        <mxCell id="t9Jcl4g-q7xanhM5zm8e-98" value="" style="whiteSpace=wrap;html=1;aspect=fixed;fillColor=#E6E6E6;fontFamily=Merriweather;" parent="1" vertex="1">
          <mxGeometry x="207.53" y="174.75" width="20" height="20" as="geometry" />
        </mxCell>
        <mxCell id="t9Jcl4g-q7xanhM5zm8e-99" value="" style="whiteSpace=wrap;html=1;aspect=fixed;fillColor=light-dark(#DAC0A2,#272727);fontFamily=Merriweather;" parent="1" vertex="1">
          <mxGeometry x="227.53" y="174.75" width="20" height="20" as="geometry" />
        </mxCell>
        <mxCell id="t9Jcl4g-q7xanhM5zm8e-101" value="" style="whiteSpace=wrap;html=1;aspect=fixed;fillColor=#DAC0A2;fontFamily=Merriweather;" parent="1" vertex="1">
          <mxGeometry x="167.53" y="194.75" width="20" height="20" as="geometry" />
        </mxCell>
        <mxCell id="t9Jcl4g-q7xanhM5zm8e-102" value="" style="whiteSpace=wrap;html=1;aspect=fixed;fillColor=#E6E6E6;fontFamily=Merriweather;" parent="1" vertex="1">
          <mxGeometry x="187.53" y="194.75" width="20" height="20" as="geometry" />
        </mxCell>
        <mxCell id="t9Jcl4g-q7xanhM5zm8e-103" value="" style="whiteSpace=wrap;html=1;aspect=fixed;fillColor=#E6E6E6;fontFamily=Merriweather;" parent="1" vertex="1">
          <mxGeometry x="207.53" y="194.75" width="20" height="20" as="geometry" />
        </mxCell>
        <mxCell id="t9Jcl4g-q7xanhM5zm8e-104" value="" style="whiteSpace=wrap;html=1;aspect=fixed;fillColor=#99CEC6;fontFamily=Merriweather;" parent="1" vertex="1">
          <mxGeometry x="227.53" y="194.75" width="20" height="20" as="geometry" />
        </mxCell>
        <mxCell id="t9Jcl4g-q7xanhM5zm8e-111" value="" style="whiteSpace=wrap;html=1;aspect=fixed;fillColor=light-dark(#DAC0A2,#272727);fontFamily=Merriweather;" parent="1" vertex="1">
          <mxGeometry x="168.24" y="150.45999999999998" width="11" height="11" as="geometry" />
        </mxCell>
        <mxCell id="t9Jcl4g-q7xanhM5zm8e-112" value="" style="whiteSpace=wrap;html=1;aspect=fixed;fillColor=#99CEC6;fontFamily=Merriweather;" parent="1" vertex="1">
          <mxGeometry x="168.24000000000004" y="160.8" width="11" height="11" as="geometry" />
        </mxCell>
        <mxCell id="t9Jcl4g-q7xanhM5zm8e-113" value="Favorable" style="text;html=1;align=center;verticalAlign=middle;whiteSpace=wrap;rounded=0;fontFamily=Merriweather;fontSize=12;" parent="1" vertex="1">
          <mxGeometry x="184.53" y="151.45999999999998" width="50" height="8" as="geometry" />
        </mxCell>
        <mxCell id="t9Jcl4g-q7xanhM5zm8e-114" value="Unfavorable" style="text;html=1;align=center;verticalAlign=middle;whiteSpace=wrap;rounded=0;fontFamily=Merriweather;fontSize=12;" parent="1" vertex="1">
          <mxGeometry x="184.53" y="161.8" width="60" height="8" as="geometry" />
        </mxCell>
        <mxCell id="t9Jcl4g-q7xanhM5zm8e-116" value="&lt;div style=&quot;line-height: 90%;&quot;&gt;Dispersible habitat&lt;/div&gt;" style="text;align=center;verticalAlign=middle;rounded=0;fontFamily=Merriweather;spacing=2;horizontal=1;whiteSpace=wrap;html=1;imageHeight=24;imageWidth=24;strokeOpacity=100;arcSize=12;" parent="1" vertex="1">
          <mxGeometry x="157.29" y="214.32" width="102.47" height="18.25" as="geometry" />
        </mxCell>
        <mxCell id="JVSTVVGn9j7_Rl-9eGPp-82" value="&lt;div style=&quot;line-height: 90%;&quot;&gt;One variable&lt;div&gt;One species&lt;/div&gt;&lt;/div&gt;" style="text;html=1;align=center;verticalAlign=middle;whiteSpace=wrap;rounded=0;fontFamily=Merriweather;rotation=-90;" parent="1" vertex="1">
          <mxGeometry x="119" y="180.88" width="67.62" height="12" as="geometry" />
        </mxCell>
        <mxCell id="m_JDdIxR8Er-Uh5f6psP-88" value="" style="endArrow=none;html=1;rounded=0;" parent="1" edge="1">
          <mxGeometry width="50" height="50" relative="1" as="geometry">
            <mxPoint x="449.97" y="204.13000000000002" as="sourcePoint" />
            <mxPoint x="488.97" y="204.13000000000002" as="targetPoint" />
          </mxGeometry>
        </mxCell>
        <mxCell id="m_JDdIxR8Er-Uh5f6psP-89" value="" style="endArrow=none;html=1;rounded=0;exitX=0.231;exitY=-0.23;exitDx=0;exitDy=0;exitPerimeter=0;" parent="1" edge="1">
          <mxGeometry width="50" height="50" relative="1" as="geometry">
            <mxPoint x="449.41824999999994" y="203.62000000000003" as="sourcePoint" />
            <mxPoint x="449.47" y="173.63000000000002" as="targetPoint" />
          </mxGeometry>
        </mxCell>
        <mxCell id="m_JDdIxR8Er-Uh5f6psP-90" value="" style="rounded=0;whiteSpace=wrap;html=1;spacing=2;fillColor=light-dark(#dac0a2, #272727);strokeColor=none;rotation=90;" parent="1" vertex="1">
          <mxGeometry x="464.23" y="173.13000000000002" width="5.75" height="18.83" as="geometry" />
        </mxCell>
        <mxCell id="m_JDdIxR8Er-Uh5f6psP-95" value="" style="rounded=0;whiteSpace=wrap;html=1;spacing=2;fillColor=light-dark(#99CEC6,#272727);strokeColor=none;rotation=90;" parent="1" vertex="1">
          <mxGeometry x="472.73" y="184.3" width="5.75" height="18.83" as="geometry" />
        </mxCell>
        <mxCell id="m_JDdIxR8Er-Uh5f6psP-101" value="" style="endArrow=classic;html=1;rounded=0;strokeWidth=2;endSize=2;startSize=2;" parent="1" edge="1">
          <mxGeometry width="50" height="50" relative="1" as="geometry">
            <mxPoint x="289.19999999999993" y="194.05000000000004" as="sourcePoint" />
            <mxPoint x="323.19999999999993" y="193.96" as="targetPoint" />
          </mxGeometry>
        </mxCell>
        <mxCell id="m_JDdIxR8Er-Uh5f6psP-102" value="&lt;font style=&quot;font-size: 12px;&quot; face=&quot;Merriweather&quot;&gt;Species&lt;/font&gt;" style="edgeLabel;html=1;align=center;verticalAlign=middle;resizable=0;points=[];rotation=-90;" parent="m_JDdIxR8Er-Uh5f6psP-101" vertex="1" connectable="0">
          <mxGeometry x="-0.2039" y="-1" relative="1" as="geometry">
            <mxPoint x="2" y="-1" as="offset" />
          </mxGeometry>
        </mxCell>
        <mxCell id="m_JDdIxR8Er-Uh5f6psP-107" value="" style="whiteSpace=wrap;html=1;aspect=fixed;fillColor=light-dark(#DAC0A2,#272727);fontFamily=Merriweather;" parent="1" vertex="1">
          <mxGeometry x="269.34000000000003" y="179.43" width="14" height="14" as="geometry" />
        </mxCell>
        <mxCell id="m_JDdIxR8Er-Uh5f6psP-108" value="" style="whiteSpace=wrap;html=1;aspect=fixed;fillColor=#99CEC6;fontFamily=Merriweather;" parent="1" vertex="1">
          <mxGeometry x="269.34000000000003" y="192.82" width="14" height="14" as="geometry" />
        </mxCell>
        <mxCell id="m_JDdIxR8Er-Uh5f6psP-109" value="" style="endArrow=none;html=1;rounded=0;strokeWidth=2;endSize=1;startSize=1;startFill=1;startArrow=classic;entryX=0.5;entryY=1;entryDx=0;entryDy=0;exitX=0.5;exitY=1;exitDx=0;exitDy=0;" parent="1" edge="1">
          <mxGeometry width="50" height="50" relative="1" as="geometry">
            <mxPoint x="278.0999999999999" y="206.82" as="sourcePoint" />
            <mxPoint x="278.0999999999999" y="193.43" as="targetPoint" />
          </mxGeometry>
        </mxCell>
        <mxCell id="m_JDdIxR8Er-Uh5f6psP-111" value="" style="endArrow=classic;html=1;rounded=0;strokeWidth=2;endSize=1;startSize=1;entryX=0.5;entryY=0;entryDx=0;entryDy=0;exitX=0.5;exitY=1;exitDx=0;exitDy=0;" parent="1" edge="1">
          <mxGeometry width="50" height="50" relative="1" as="geometry">
            <mxPoint x="274.3399999999999" y="193.43" as="sourcePoint" />
            <mxPoint x="274.3399999999999" y="179.43" as="targetPoint" />
          </mxGeometry>
        </mxCell>
        <mxCell id="m_JDdIxR8Er-Uh5f6psP-113" value="SHAP" style="text;html=1;align=center;verticalAlign=middle;whiteSpace=wrap;rounded=0;fontFamily=Merriweather;rotation=0;" parent="1" vertex="1">
          <mxGeometry x="260.53" y="207.82" width="31.62" height="12" as="geometry" />
        </mxCell>
        <mxCell id="m_JDdIxR8Er-Uh5f6psP-116" value="`\Delta` SHAP" style="text;html=1;align=center;verticalAlign=middle;whiteSpace=wrap;rounded=0;fontFamily=Merriweather;" parent="1" vertex="1">
          <mxGeometry x="340.5999999999999" y="215.32000000000002" width="51.62" height="17.25" as="geometry" />
        </mxCell>
        <mxCell id="79KnxAv0YFB9ApgYJ-vH-201" value="" style="endArrow=classic;html=1;rounded=0;strokeWidth=2;endSize=2;startSize=2;" parent="1" edge="1">
          <mxGeometry width="50" height="50" relative="1" as="geometry">
            <mxPoint x="249.53" y="195.000000000003" as="sourcePoint" />
            <mxPoint x="266.53" y="195" as="targetPoint" />
          </mxGeometry>
        </mxCell>
        <mxCell id="79KnxAv0YFB9ApgYJ-vH-203" value="" style="whiteSpace=wrap;html=1;aspect=fixed;fillColor=light-dark(#0E4D10,#272727);fontFamily=Merriweather;" parent="1" vertex="1">
          <mxGeometry x="328.22" y="174.75" width="20" height="20" as="geometry" />
        </mxCell>
        <mxCell id="79KnxAv0YFB9ApgYJ-vH-204" value="" style="whiteSpace=wrap;html=1;aspect=fixed;fillColor=#5F1415;fontFamily=Merriweather;" parent="1" vertex="1">
          <mxGeometry x="348.22" y="174.75" width="20" height="20" as="geometry" />
        </mxCell>
        <mxCell id="79KnxAv0YFB9ApgYJ-vH-205" value="" style="whiteSpace=wrap;html=1;aspect=fixed;fillColor=#E6E6E6;fontFamily=Merriweather;" parent="1" vertex="1">
          <mxGeometry x="368.22" y="174.75" width="20" height="20" as="geometry" />
        </mxCell>
        <mxCell id="79KnxAv0YFB9ApgYJ-vH-206" value="" style="whiteSpace=wrap;html=1;aspect=fixed;fillColor=light-dark(#CEA2D7,#272727);fontFamily=Merriweather;" parent="1" vertex="1">
          <mxGeometry x="388.22" y="174.75" width="20" height="20" as="geometry" />
        </mxCell>
        <mxCell id="79KnxAv0YFB9ApgYJ-vH-207" value="" style="whiteSpace=wrap;html=1;aspect=fixed;fillColor=#E4EDE5;fontFamily=Merriweather;" parent="1" vertex="1">
          <mxGeometry x="328.22" y="194.75" width="20" height="20" as="geometry" />
        </mxCell>
        <mxCell id="79KnxAv0YFB9ApgYJ-vH-208" value="" style="whiteSpace=wrap;html=1;aspect=fixed;fillColor=#E6E6E6;fontFamily=Merriweather;" parent="1" vertex="1">
          <mxGeometry x="348.22" y="194.75" width="20" height="20" as="geometry" />
        </mxCell>
        <mxCell id="79KnxAv0YFB9ApgYJ-vH-209" value="" style="whiteSpace=wrap;html=1;aspect=fixed;fillColor=#E6E6E6;fontFamily=Merriweather;" parent="1" vertex="1">
          <mxGeometry x="368.22" y="194.75" width="20" height="20" as="geometry" />
        </mxCell>
        <mxCell id="79KnxAv0YFB9ApgYJ-vH-210" value="" style="whiteSpace=wrap;html=1;aspect=fixed;fillColor=#91A7DE;fontFamily=Merriweather;" parent="1" vertex="1">
          <mxGeometry x="388.22" y="194.75" width="20" height="20" as="geometry" />
        </mxCell>
        <mxCell id="79KnxAv0YFB9ApgYJ-vH-213" value="" style="endArrow=classic;html=1;rounded=0;strokeWidth=2;endSize=2;startSize=2;" parent="1" edge="1">
          <mxGeometry width="50" height="50" relative="1" as="geometry">
            <mxPoint x="409.53" y="194.46000000000004" as="sourcePoint" />
            <mxPoint x="443.53" y="194.37" as="targetPoint" />
          </mxGeometry>
        </mxCell>
        <mxCell id="79KnxAv0YFB9ApgYJ-vH-214" value="&lt;font style=&quot;font-size: 12px;&quot; face=&quot;Merriweather&quot;&gt;Grid cells&lt;/font&gt;" style="edgeLabel;html=1;align=center;verticalAlign=middle;resizable=0;points=[];rotation=-90;" parent="79KnxAv0YFB9ApgYJ-vH-213" vertex="1" connectable="0">
          <mxGeometry x="-0.2039" y="-1" relative="1" as="geometry">
            <mxPoint x="2" y="-1" as="offset" />
          </mxGeometry>
        </mxCell>
        <mxCell id="79KnxAv0YFB9ApgYJ-vH-223" value="High (+)" style="text;html=1;align=center;verticalAlign=middle;whiteSpace=wrap;rounded=0;fontFamily=Merriweather;" parent="1" vertex="1">
          <mxGeometry x="320.55" y="151.99999999999997" width="43.98" height="8" as="geometry" />
        </mxCell>
        <mxCell id="79KnxAv0YFB9ApgYJ-vH-224" value="High (-)" style="text;html=1;align=center;verticalAlign=middle;whiteSpace=wrap;rounded=0;fontFamily=Merriweather;" parent="1" vertex="1">
          <mxGeometry x="371.57000000000005" y="152" width="43.31" height="8" as="geometry" />
        </mxCell>
        <mxCell id="79KnxAv0YFB9ApgYJ-vH-225" value="" style="group;rotation=-90;" parent="1" vertex="1" connectable="0">
          <mxGeometry x="358.53" y="153" width="10" height="30" as="geometry" />
        </mxCell>
        <mxCell id="79KnxAv0YFB9ApgYJ-vH-220" value="" style="whiteSpace=wrap;html=1;aspect=fixed;fillColor=light-dark(#4D4D4D,#272727);fontFamily=Merriweather;strokeColor=none;rotation=-90;" parent="79KnxAv0YFB9ApgYJ-vH-225" vertex="1">
          <mxGeometry x="-10" y="10" width="10" height="10" as="geometry" />
        </mxCell>
        <mxCell id="79KnxAv0YFB9ApgYJ-vH-221" value="" style="whiteSpace=wrap;html=1;aspect=fixed;fillColor=light-dark(#808080,#272727);fontFamily=Merriweather;strokeColor=none;rotation=-90;" parent="79KnxAv0YFB9ApgYJ-vH-225" vertex="1">
          <mxGeometry y="10" width="10" height="10" as="geometry" />
        </mxCell>
        <mxCell id="79KnxAv0YFB9ApgYJ-vH-222" value="0" style="whiteSpace=wrap;html=1;aspect=fixed;fillColor=light-dark(#B3B3B3,#272727);fontFamily=Merriweather;strokeColor=none;rotation=0;" parent="79KnxAv0YFB9ApgYJ-vH-225" vertex="1">
          <mxGeometry x="10" y="10" width="10" height="10" as="geometry" />
        </mxCell>
        <mxCell id="79KnxAv0YFB9ApgYJ-vH-227" value="" style="whiteSpace=wrap;html=1;aspect=fixed;fillColor=light-dark(#808080,#272727);fontFamily=Merriweather;strokeColor=none;rotation=-90;" parent="1" vertex="1">
          <mxGeometry x="378.22" y="163" width="10" height="10" as="geometry" />
        </mxCell>
        <mxCell id="79KnxAv0YFB9ApgYJ-vH-228" value="" style="ellipse;whiteSpace=wrap;html=1;aspect=fixed;strokeColor=#FFFFFF;strokeWidth=0.5;fillColor=light-dark(#A76119,#345E34);" parent="1" vertex="1">
          <mxGeometry x="464.23" y="180.04" width="5" height="5" as="geometry" />
        </mxCell>
        <mxCell id="79KnxAv0YFB9ApgYJ-vH-230" value="" style="rhombus;whiteSpace=wrap;html=1;strokeWidth=0.5;strokeColor=#FFFFFF;fillColor=#038571;" parent="1" vertex="1">
          <mxGeometry x="472.48" y="190.71" width="6" height="6" as="geometry" />
        </mxCell>
        <mxCell id="79KnxAv0YFB9ApgYJ-vH-232" value="" style="endArrow=classic;html=1;rounded=0;strokeWidth=2;endSize=2;startSize=2;" parent="1" edge="1">
          <mxGeometry width="50" height="50" relative="1" as="geometry">
            <mxPoint x="491.72" y="189.91000000000008" as="sourcePoint" />
            <mxPoint x="531.72" y="189.82000000000005" as="targetPoint" />
          </mxGeometry>
        </mxCell>
        <mxCell id="79KnxAv0YFB9ApgYJ-vH-233" value="&lt;font style=&quot;font-size: 12px;&quot; face=&quot;Merriweather&quot;&gt;Variables&lt;/font&gt;" style="edgeLabel;html=1;align=center;verticalAlign=middle;resizable=0;points=[];rotation=-90;" parent="79KnxAv0YFB9ApgYJ-vH-232" vertex="1" connectable="0">
          <mxGeometry x="-0.2039" y="-1" relative="1" as="geometry">
            <mxPoint y="-1" as="offset" />
          </mxGeometry>
        </mxCell>
        <mxCell id="79KnxAv0YFB9ApgYJ-vH-234" value="" style="endArrow=none;html=1;rounded=0;" parent="1" edge="1">
          <mxGeometry width="50" height="50" relative="1" as="geometry">
            <mxPoint x="539.0799999999999" y="206.80000000000004" as="sourcePoint" />
            <mxPoint x="578.0799999999999" y="206.80000000000004" as="targetPoint" />
          </mxGeometry>
        </mxCell>
        <mxCell id="79KnxAv0YFB9ApgYJ-vH-235" value="" style="endArrow=none;html=1;rounded=0;exitX=0.231;exitY=-0.23;exitDx=0;exitDy=0;exitPerimeter=0;" parent="1" edge="1">
          <mxGeometry width="50" height="50" relative="1" as="geometry">
            <mxPoint x="538.5282499999998" y="207.34" as="sourcePoint" />
            <mxPoint x="538.5799999999999" y="166.3" as="targetPoint" />
          </mxGeometry>
        </mxCell>
        <mxCell id="79KnxAv0YFB9ApgYJ-vH-236" value="" style="rounded=0;whiteSpace=wrap;html=1;spacing=2;fillColor=light-dark(#dac0a2, #272727);strokeColor=none;rotation=90;" parent="1" vertex="1">
          <mxGeometry x="546.3399999999999" y="165.8" width="5.75" height="18.83" as="geometry" />
        </mxCell>
        <mxCell id="79KnxAv0YFB9ApgYJ-vH-237" value="" style="rounded=0;whiteSpace=wrap;html=1;spacing=2;fillColor=light-dark(#99CEC6,#272727);strokeColor=none;rotation=90;" parent="1" vertex="1">
          <mxGeometry x="564.8399999999999" y="172.97" width="5.75" height="18.83" as="geometry" />
        </mxCell>
        <mxCell id="79KnxAv0YFB9ApgYJ-vH-238" value="" style="ellipse;whiteSpace=wrap;html=1;aspect=fixed;strokeColor=#FFFFFF;strokeWidth=0.5;fillColor=light-dark(#A76119,#345E34);" parent="1" vertex="1">
          <mxGeometry x="546.3399999999999" y="172.70999999999998" width="5" height="5" as="geometry" />
        </mxCell>
        <mxCell id="79KnxAv0YFB9ApgYJ-vH-239" value="" style="rhombus;whiteSpace=wrap;html=1;strokeWidth=0.5;strokeColor=#FFFFFF;fillColor=#038571;" parent="1" vertex="1">
          <mxGeometry x="565.5899999999999" y="179.38000000000002" width="6" height="6" as="geometry" />
        </mxCell>
        <mxCell id="79KnxAv0YFB9ApgYJ-vH-242" value="" style="rounded=0;whiteSpace=wrap;html=1;spacing=2;fillColor=light-dark(#dac0a2, #272727);strokeColor=none;rotation=90;" parent="1" vertex="1">
          <mxGeometry x="553.3399999999999" y="184.80000000000004" width="5.75" height="16" as="geometry" />
        </mxCell>
        <mxCell id="79KnxAv0YFB9ApgYJ-vH-243" value="" style="ellipse;whiteSpace=wrap;html=1;aspect=fixed;strokeColor=#FFFFFF;strokeWidth=0.5;fillColor=light-dark(#A76119,#345E34);" parent="1" vertex="1">
          <mxGeometry x="553.3399999999999" y="190.71" width="4.73" height="4.73" as="geometry" />
        </mxCell>
        <mxCell id="79KnxAv0YFB9ApgYJ-vH-244" value="" style="rounded=0;whiteSpace=wrap;html=1;spacing=2;fillColor=light-dark(#99CEC6,#272727);strokeColor=none;rotation=90;" parent="1" vertex="1">
          <mxGeometry x="564.3399999999999" y="190.75" width="5.75" height="18.83" as="geometry" />
        </mxCell>
        <mxCell id="79KnxAv0YFB9ApgYJ-vH-245" value="" style="rhombus;whiteSpace=wrap;html=1;strokeWidth=0.5;strokeColor=#FFFFFF;fillColor=#038571;" parent="1" vertex="1">
          <mxGeometry x="565.0899999999999" y="197.16000000000003" width="6" height="6" as="geometry" />
        </mxCell>
        <mxCell id="79KnxAv0YFB9ApgYJ-vH-247" value="" style="endArrow=classic;html=1;rounded=0;strokeWidth=2;endSize=2;startSize=2;" parent="1" edge="1">
          <mxGeometry width="50" height="50" relative="1" as="geometry">
            <mxPoint x="580.54" y="190.35000000000002" as="sourcePoint" />
            <mxPoint x="620.54" y="190.26" as="targetPoint" />
          </mxGeometry>
        </mxCell>
        <mxCell id="79KnxAv0YFB9ApgYJ-vH-248" value="&lt;font style=&quot;font-size: 12px;&quot; face=&quot;Merriweather&quot;&gt;Regions&lt;/font&gt;" style="edgeLabel;html=1;align=center;verticalAlign=middle;resizable=0;points=[];rotation=-90;" parent="79KnxAv0YFB9ApgYJ-vH-247" vertex="1" connectable="0">
          <mxGeometry x="-0.2039" y="-1" relative="1" as="geometry">
            <mxPoint x="1" y="-1" as="offset" />
          </mxGeometry>
        </mxCell>
        <mxCell id="79KnxAv0YFB9ApgYJ-vH-249" value="" style="whiteSpace=wrap;html=1;aspect=fixed;fillColor=light-dark(#7DB87E,#272727);fontFamily=Merriweather;strokeColor=#FFFFFF;strokeWidth=1;" parent="1" vertex="1">
          <mxGeometry x="662.8599999999999" y="190.67000000000002" width="10" height="10" as="geometry" />
        </mxCell>
        <mxCell id="79KnxAv0YFB9ApgYJ-vH-251" value="" style="whiteSpace=wrap;html=1;aspect=fixed;fillColor=light-dark(#0C3E26,#272727);fontFamily=Merriweather;strokeWidth=1;strokeColor=#FFFFFF;" parent="1" vertex="1">
          <mxGeometry x="662.8599999999999" y="181.09000000000003" width="10" height="10" as="geometry" />
        </mxCell>
        <mxCell id="79KnxAv0YFB9ApgYJ-vH-254" value="" style="endArrow=none;html=1;rounded=0;" parent="1" edge="1">
          <mxGeometry width="50" height="50" relative="1" as="geometry">
            <mxPoint x="651.5099999999999" y="203.04000000000002" as="sourcePoint" />
            <mxPoint x="651.5099999999999" y="180.04000000000002" as="targetPoint" />
          </mxGeometry>
        </mxCell>
        <mxCell id="79KnxAv0YFB9ApgYJ-vH-255" value="" style="whiteSpace=wrap;html=1;aspect=fixed;fillColor=light-dark(#CEA2D7,#272727);fontFamily=Merriweather;strokeColor=#FFFFFF;strokeWidth=1;" parent="1" vertex="1">
          <mxGeometry x="652.8599999999999" y="190.67000000000002" width="10" height="10" as="geometry" />
        </mxCell>
        <mxCell id="79KnxAv0YFB9ApgYJ-vH-257" value="" style="whiteSpace=wrap;html=1;aspect=fixed;fillColor=light-dark(#B7D9CA,#272727);fontFamily=Merriweather;strokeWidth=1;strokeColor=#FFFFFF;" parent="1" vertex="1">
          <mxGeometry x="652.8599999999999" y="181.09000000000003" width="10" height="10" as="geometry" />
        </mxCell>
        <mxCell id="79KnxAv0YFB9ApgYJ-vH-259" value="" style="whiteSpace=wrap;html=1;aspect=fixed;fillColor=light-dark(#F8E8E9,#272727);fontFamily=Merriweather;strokeColor=#FFFFFF;strokeWidth=1;" parent="1" vertex="1">
          <mxGeometry x="639.8599999999999" y="190.67000000000002" width="10" height="10" as="geometry" />
        </mxCell>
        <mxCell id="79KnxAv0YFB9ApgYJ-vH-261" value="" style="whiteSpace=wrap;html=1;aspect=fixed;fillColor=light-dark(#A6B7E5,#272727);fontFamily=Merriweather;strokeWidth=1;strokeColor=#FFFFFF;" parent="1" vertex="1">
          <mxGeometry x="639.8599999999999" y="181.09000000000003" width="10" height="10" as="geometry" />
        </mxCell>
        <mxCell id="79KnxAv0YFB9ApgYJ-vH-263" value="" style="whiteSpace=wrap;html=1;aspect=fixed;fillColor=light-dark(#D48080,#272727);fontFamily=Merriweather;strokeColor=#FFFFFF;strokeWidth=1;" parent="1" vertex="1">
          <mxGeometry x="629.8599999999999" y="190.67000000000002" width="10" height="10" as="geometry" />
        </mxCell>
        <mxCell id="79KnxAv0YFB9ApgYJ-vH-265" value="" style="whiteSpace=wrap;html=1;aspect=fixed;fillColor=light-dark(#722120,#272727);fontFamily=Merriweather;strokeWidth=1;strokeColor=#FFFFFF;" parent="1" vertex="1">
          <mxGeometry x="629.8599999999999" y="181.09000000000003" width="10" height="10" as="geometry" />
        </mxCell>
        <mxCell id="79KnxAv0YFB9ApgYJ-vH-267" value="" style="endArrow=none;html=1;rounded=0;" parent="1" edge="1">
          <mxGeometry width="50" height="50" relative="1" as="geometry">
            <mxPoint x="624.8799999999999" y="202.58000000000004" as="sourcePoint" />
            <mxPoint x="674.8799999999999" y="202.58000000000004" as="targetPoint" />
          </mxGeometry>
        </mxCell>
        <mxCell id="79KnxAv0YFB9ApgYJ-vH-270" value="&lt;div style=&quot;line-height: 90%;&quot;&gt;`\Delta` SHAP&lt;div&gt;(&lt;span style=&quot;background-color: transparent; color: light-dark(rgb(0, 0, 0), rgb(255, 255, 255));&quot;&gt;Median, IQR)&lt;/span&gt;&lt;/div&gt;&lt;/div&gt;" style="text;html=1;align=center;verticalAlign=middle;whiteSpace=wrap;rounded=0;fontFamily=Merriweather;" parent="1" vertex="1">
          <mxGeometry x="427.83" y="209.75" width="77.81" height="17.25" as="geometry" />
        </mxCell>
        <mxCell id="79KnxAv0YFB9ApgYJ-vH-272" value="&lt;div style=&quot;line-height: 90%;&quot;&gt;`\Delta` SHAP&lt;div&gt;(&lt;span style=&quot;background-color: transparent; color: light-dark(rgb(0, 0, 0), rgb(255, 255, 255));&quot;&gt;Median, IQR)&lt;/span&gt;&lt;/div&gt;&lt;/div&gt;" style="text;html=1;align=center;verticalAlign=middle;whiteSpace=wrap;rounded=0;fontFamily=Merriweather;" parent="1" vertex="1">
          <mxGeometry x="520" y="210.58" width="77.81" height="17.25" as="geometry" />
        </mxCell>
      </root>
    </mxGraphModel>
  </diagram>
</mxfile>
